<svg width="1244" height="702" viewBox="0 0 1044 702" fill="none" xmlns="http://www.w3.org/2000/svg">
<path fill-rule="evenodd" clip-rule="evenodd" d="M1028.72 96.1734C909.828 96.1734 813.445 192.557 813.445 311.451V319.413C813.445 322.686 813.518 325.942 813.662 329.179C814.056 337.991 806.689 345.46 797.869 345.46C711.233 345.46 641 415.693 641 502.329V508.131C641 594.767 711.233 665 797.869 665C866.365 665 924.608 621.099 945.995 559.9C952.535 541.184 972.669 528.269 992.211 531.608C1004.08 533.635 1016.28 534.691 1028.72 534.691C1147.62 534.691 1244 438.308 1244 319.413V311.451C1244 192.557 1147.62 96.1734 1028.72 96.1734Z" fill="white"/>
<path fill-rule="evenodd" clip-rule="evenodd" d="M1007.5 130C900.633 130 814 216.633 814 323.5C814 327.366 814.113 331.206 814.337 335.016C814.811 343.083 808.08 350 800 350C722.128 350 659 413.128 659 491C659 568.872 722.128 632 800 632C859.625 632 910.606 594.99 931.224 542.69C938.434 524.402 958.45 511.762 977.879 514.747C987.536 516.23 997.428 517 1007.5 517C1114.37 517 1201 430.367 1201 323.5C1201 216.633 1114.37 130 1007.5 130Z" fill="#FF6B08"/>
<circle cx="183" cy="553" r="149" fill="white"/>
<circle cx="59" cy="323" r="59" fill="white"/>
<circle cx="143" cy="161" r="24" fill="white"/>
<circle cx="198" cy="539" r="126" fill="#FF6B08"/>
<circle cx="805" cy="39" r="39" fill="#FF6B08"/>
<circle cx="957" cy="39" r="13" fill="#FF6B08"/>
</svg>
