<svg aria-hidden="true" style="position: absolute; width: 0; height: 0; overflow: hidden;" version="1.1" xmlns="http://www.w3.org/2000/svg" xmlns:xlink="http://www.w3.org/1999/xlink">
<defs>
<symbol id="icon-chart" viewBox="0 0 32 32">
<path d="M31.333 30.667h-30.667c-0.368 0-0.667 0.299-0.667 0.667s0.299 0.667 0.667 0.667h30.667c0.368 0 0.667-0.299 0.667-0.667s-0.299-0.667-0.667-0.667z"></path>
<path d="M6 22.667h-4c-0.368 0-0.667 0.299-0.667 0.667v8c0 0.368 0.299 0.667 0.667 0.667h4c0.368 0 0.667-0.299 0.667-0.667v-8c0-0.368-0.299-0.667-0.667-0.667zM5.333 30.667h-2.667v-6.667h2.667v6.667h-0z"></path>
<path d="M14 16h-4c-0.368 0-0.667 0.299-0.667 0.667v14.667c0 0.368 0.299 0.667 0.667 0.667h4c0.368 0 0.667-0.299 0.667-0.667v-14.667c0-0.368-0.299-0.667-0.667-0.667zM13.333 30.667h-2.667v-13.333h2.667v13.333z"></path>
<path d="M22 18.667h-4c-0.368 0-0.667 0.299-0.667 0.667v12c0 0.368 0.299 0.667 0.667 0.667h4c0.368 0 0.667-0.299 0.667-0.667v-12c0-0.368-0.299-0.667-0.667-0.667zM21.333 30.667h-2.667v-10.667h2.667v10.667z"></path>
<path d="M30 10.667h-4c-0.368 0-0.667 0.299-0.667 0.667v20c0 0.368 0.299 0.667 0.667 0.667h4c0.368 0 0.667-0.299 0.667-0.667v-20c0-0.368-0.299-0.667-0.667-0.667zM29.333 30.667h-2.667v-18.667h2.667v18.667z"></path>
<path d="M4 12c-1.471 0-2.667 1.196-2.667 2.667s1.196 2.667 2.667 2.667 2.667-1.196 2.667-2.667c0-1.471-1.196-2.667-2.667-2.667zM4 16c-0.736 0-1.333-0.599-1.333-1.333s0.597-1.333 1.333-1.333 1.333 0.599 1.333 1.333c0 0.735-0.597 1.333-1.333 1.333z"></path>
<path d="M12 5.333c-1.471 0-2.667 1.196-2.667 2.667s1.196 2.667 2.667 2.667c1.471 0 2.667-1.196 2.667-2.667s-1.196-2.667-2.667-2.667zM12 9.333c-0.736 0-1.333-0.599-1.333-1.333s0.597-1.333 1.333-1.333 1.333 0.599 1.333 1.333c0 0.735-0.597 1.333-1.333 1.333z"></path>
<path d="M20 8c-1.471 0-2.667 1.196-2.667 2.667s1.196 2.667 2.667 2.667c1.471 0 2.667-1.196 2.667-2.667s-1.196-2.667-2.667-2.667zM20 12c-0.736 0-1.333-0.599-1.333-1.333s0.597-1.333 1.333-1.333 1.333 0.599 1.333 1.333c0 0.735-0.597 1.333-1.333 1.333z"></path>
<path d="M28 0c-1.471 0-2.667 1.196-2.667 2.667s1.196 2.667 2.667 2.667c1.471 0 2.667-1.196 2.667-2.667s-1.196-2.667-2.667-2.667zM28 4c-0.736 0-1.333-0.599-1.333-1.333s0.597-1.333 1.333-1.333 1.333 0.599 1.333 1.333c0 0.735-0.597 1.333-1.333 1.333z"></path>
<path d="M27.059 3.608c-0.26-0.26-0.683-0.26-0.943 0l-5.173 5.173c-0.26 0.26-0.26 0.683 0 0.943 0.131 0.129 0.301 0.195 0.472 0.195 0.169 0 0.34-0.064 0.471-0.195l5.173-5.173c0.26-0.26 0.26-0.683 0-0.943z"></path>
<path d="M18.388 9.128l-4.283-1.221c-0.359-0.104-0.723 0.104-0.823 0.459-0.101 0.355 0.104 0.723 0.457 0.824l4.283 1.221c0.061 0.017 0.123 0.025 0.183 0.025 0.291 0 0.557-0.191 0.641-0.484 0.101-0.353-0.104-0.723-0.459-0.824z"></path>
<path d="M10.96 8.831c-0.229-0.288-0.648-0.335-0.936-0.107l-5.027 4.008c-0.288 0.231-0.336 0.649-0.105 0.937 0.132 0.165 0.327 0.251 0.521 0.251 0.145 0 0.292-0.048 0.415-0.144l5.027-4.008c0.288-0.231 0.336-0.649 0.105-0.937z"></path>
</symbol>
<symbol id="icon-arrow" viewBox="0 0 124 32">
<path d="M2.586 14.586c-0.781 0.781-0.781 2.047 0 2.828l12.728 12.728c0.781 0.781 2.047 0.781 2.828 0s0.781-2.047 0-2.828l-11.314-11.314 11.314-11.314c0.781-0.781 0.781-2.047 0-2.828s-2.047-0.781-2.828 0l-12.728 12.728zM124 14h-120v4h120v-4z"></path>
</symbol>
<symbol id="icon-search" viewBox="0 0 32 32">
<path d="M31.609 29.724l-9.1-9.1c1.763-2.177 2.824-4.944 2.824-7.957 0-6.984-5.683-12.667-12.667-12.667s-12.666 5.683-12.666 12.666c0 6.984 5.683 12.667 12.667 12.667 3.013 0 5.78-1.061 7.957-2.824l9.1 9.1c0.26 0.26 0.601 0.391 0.943 0.391s0.683-0.131 0.943-0.391c0.521-0.521 0.521-1.364-0-1.885zM12.667 22.667c-5.515 0-10-4.485-10-10s4.485-10 10-10c5.515 0 10 4.485 10 10s-4.485 10-10 10z"></path>
</symbol>
<symbol id="icon-exit" viewBox="0 0 32 32">
<path stroke-linejoin="miter" stroke-linecap="butt" stroke-miterlimit="4" stroke-width="0.5333" d="M26.769 11.242v-0c0.384-0.384 1.007-0.384 1.391 0l2.799 2.799c1.115 1.114 1.115 2.928 0 4.042l-2.799 2.799c-0.192 0.192-0.443 0.288-0.695 0.288s-0.503-0.096-0.695-0.288v0c-0.384-0.384-0.384-1.006 0-1.39v0l2.446-2.446h-15.653c-0.543 0-0.983-0.44-0.983-0.983s0.44-0.983 0.983-0.983h15.653l-2.446-2.447c-0.384-0.384-0.384-1.006 0-1.39zM22.358 24.5v2.5c0 2.61-2.124 4.733-4.733 4.733h-12.563c-2.61 0-4.733-2.124-4.733-4.733v-22c0-2.61 2.124-4.733 4.733-4.733h12.563c2.61 0 4.733 2.124 4.733 4.733v2.5c0 0.543-0.44 0.983-0.983 0.983s-0.983-0.44-0.983-0.983v-2.5c0-1.526-1.241-2.767-2.767-2.767h-12.563c-1.526 0-2.767 1.241-2.767 2.767v22c0 1.526 1.241 2.767 2.767 2.767h12.563c1.526 0 2.767-1.241 2.767-2.767v-2.5c0-0.543 0.44-0.983 0.983-0.983s0.983 0.44 0.983 0.983z"></path>
</symbol>
<symbol id="icon-add" viewBox="0 0 32 32">
<path d="M31.883 17.058h-14.754v14.372h-2.37v-14.372h-14.677v-2.217h14.677v-14.448h2.37v14.448h14.754v2.217z"></path>
</symbol>
<symbol id="icon-pencil" viewBox="0 0 32 32">
<path d="M12 20l4-2 14-14-2-2-14 14-2 4zM9.041 27.097c-0.989-2.085-2.052-3.149-4.137-4.137l3.097-8.525 4-2.435 12-12h-6l-12 12-6 20 20-6 12-12v-6l-12 12-2.435 4z"></path>
</symbol>
<symbol id="icon-bin" viewBox="0 0 32 32">
<path d="M4 10v20c0 1.1 0.9 2 2 2h18c1.1 0 2-0.9 2-2v-20h-22zM10 28h-2v-14h2v14zM14 28h-2v-14h2v14zM18 28h-2v-14h2v14zM22 28h-2v-14h2v14z"></path>
<path d="M26.5 4h-6.5v-2.5c0-0.825-0.675-1.5-1.5-1.5h-7c-0.825 0-1.5 0.675-1.5 1.5v2.5h-6.5c-0.825 0-1.5 0.675-1.5 1.5v2.5h26v-2.5c0-0.825-0.675-1.5-1.5-1.5zM18 4h-6v-1.975h6v1.975z"></path>
</symbol>
<symbol id="icon-add-people" viewBox="0 0 32 32">
<path d="M18.529 21.037c-0.782-0.546-1.619-0.991-2.493-1.331 1.163-1.057 1.935-2.539 2.069-4.197 1.764-1.719 4.077-2.661 6.556-2.661 1.935 0 3.793 0.583 5.374 1.685 0.566 0.395 1.345 0.256 1.74-0.31s0.256-1.345-0.31-1.74c-0.782-0.546-1.619-0.99-2.493-1.331 1.284-1.167 2.091-2.849 2.091-4.716 0-3.515-2.859-6.374-6.374-6.374s-6.374 2.859-6.374 6.374c0 1.86 0.801 3.536 2.076 4.702-0.175 0.067-0.348 0.138-0.52 0.214-0.782 0.344-1.518 0.768-2.201 1.265-0.943-2.343-3.239-4.001-5.916-4.001-3.515 0-6.374 2.859-6.374 6.374 0 1.855 0.796 3.526 2.064 4.692-3.39 1.27-6.139 3.999-7.259 7.478-0.371 1.154-0.175 2.377 0.539 3.357s1.818 1.541 3.030 1.541h10.874c0.69 0 1.25-0.56 1.25-1.25s-0.56-1.25-1.25-1.25h-10.874c-0.404 0-0.772-0.187-1.010-0.514s-0.303-0.735-0.18-1.119c1.235-3.841 5.003-6.523 9.162-6.523 1.935 0 3.793 0.583 5.374 1.685 0.566 0.395 1.345 0.256 1.74-0.31s0.256-1.345-0.31-1.74zM24.688 2.562c2.136 0 3.875 1.738 3.875 3.874s-1.738 3.874-3.875 3.874c-2.136 0-3.875-1.738-3.875-3.874s1.738-3.874 3.875-3.874zM11.752 11.116c2.136 0 3.874 1.738 3.874 3.874s-1.738 3.875-3.874 3.875-3.874-1.738-3.874-3.875c0-2.136 1.738-3.874 3.874-3.874zM32 26.122c0 0.69-0.56 1.25-1.25 1.25h-3.437v3.437c0 0.69-0.56 1.25-1.25 1.25s-1.25-0.56-1.25-1.25v-3.437h-3.437c-0.69 0-1.25-0.56-1.25-1.25s0.56-1.25 1.25-1.25h3.437v-3.437c0-0.69 0.56-1.25 1.25-1.25s1.25 0.56 1.25 1.25v3.437h3.437c0.69 0 1.25 0.56 1.25 1.25z"></path>
</symbol>
<symbol id="icon-close" viewBox="0 0 32 32">
<path d="M32 3.223l-3.223-3.223-12.777 12.777-12.777-12.777-3.223 3.223 12.777 12.777-12.777 12.777 3.223 3.223 12.777-12.777 12.777 12.777 3.223-3.223-12.777-12.777 12.777-12.777z"></path>
</symbol>
<symbol id="icon-logo" viewBox="0 0 107 32">
<path fill="#181c27" style="fill: var(--color1, #181c27)" d="M36.213 12.011c-2.172 0-3.811 1.712-3.811 3.985s1.656 3.985 3.85 3.985c2.172 0 3.81-1.712 3.81-3.985s-1.655-3.985-3.849-3.985zM47.223 0.162h-47.223v31.838h47.223l11.152-15.885-11.152-15.953zM24.692 21.036l-0.109 0.093c-1.763 1.486-3.804 2.239-6.066 2.239-2.139 0-4.068-0.743-5.433-2.092-1.352-1.338-2.097-3.213-2.097-5.28 0-1.986 0.757-3.834 2.134-5.204 1.397-1.397 3.304-2.167 5.38-2.167 2.34 0 3.959 0.564 5.596 1.947l0.233 0.197-2.301 2.754-0.239-0.198c-1.004-0.832-1.881-1.314-3.392-1.314-2.004 0-3.634 1.788-3.634 3.985 0 2.332 1.619 4.024 3.849 4.024 0.982 0 1.854-0.232 2.535-0.674v-1.481h-3.040v-3.213h6.584v6.384zM41.678 21.203c-1.417 1.396-3.358 2.165-5.466 2.165s-4.045-0.763-5.447-2.151c-1.381-1.366-2.142-3.218-2.142-5.221-0.006-0.967 0.182-1.926 0.553-2.82s0.918-1.706 1.609-2.387c1.417-1.396 3.358-2.162 5.466-2.162s4.044 0.764 5.446 2.151c1.381 1.366 2.142 3.218 2.142 5.221 0.006 0.967-0.182 1.925-0.553 2.818s-0.918 1.704-1.608 2.385z"></path>
<path fill="#fff" style="fill: var(--color2, #fff); stroke: var(--color2, #fff)" stroke="#fff" stroke-linejoin="miter" stroke-linecap="butt" stroke-miterlimit="10" stroke-width="0.7619" d="M11.278 16.022c0-3.815 2.988-6.94 7.074-6.94 2.429 0 3.893 0.652 5.3 1.84l-1.87 2.243c-1.041-0.863-1.966-1.361-3.527-1.361-2.159 0-3.874 1.898-3.874 4.218 0 2.454 1.696 4.256 4.086 4.256 1.079 0 2.043-0.268 2.795-0.805v-1.917h-2.988v-2.552h5.86v5.828c-1.388 1.169-3.296 2.128-5.763 2.128-4.202 0-7.093-2.933-7.093-6.937z"></path>
<path fill="#fff" style="fill: var(--color2, #fff); stroke: var(--color2, #fff)" stroke="#fff" stroke-linejoin="miter" stroke-linecap="butt" stroke-miterlimit="10" stroke-width="0.7619" d="M29.176 16.115c0-3.815 3.029-6.94 7.189-6.94s7.151 3.087 7.151 6.94c0 3.815-3.029 6.94-7.189 6.94s-7.151-3.087-7.151-6.94zM40.413 16.115c0-2.301-1.696-4.218-4.086-4.218s-4.048 1.879-4.048 4.218c0 2.3 1.696 4.218 4.086 4.218s4.048-1.879 4.048-4.218z"></path>
<path fill="#ff6c00" style="fill: var(--color3, #ff6c00)" d="M106.667 0h-47.164v31.838h47.164v-31.838z"></path>
<path fill="#fff" style="fill: var(--color2, #fff); stroke: var(--color2, #fff)" stroke="#fff" stroke-linejoin="miter" stroke-linecap="butt" stroke-miterlimit="10" stroke-width="0.7619" d="M74.033 9.542h2.968v13.42h-2.968v-13.42z"></path>
<path fill="#fff" style="fill: var(--color2, #fff); stroke: var(--color2, #fff)" stroke="#fff" stroke-linejoin="miter" stroke-linecap="butt" stroke-miterlimit="10" stroke-width="0.7619" d="M85.783 12.265h-4.106v-2.722h11.179v2.722h-4.105v10.697h-2.968v-10.697z"></path>
</symbol>
<symbol id="icon-heart" viewBox="0 0 32 32">
<path d="M16 30.72l-2.24-2.24c-8.32-7.36-13.76-12.32-13.76-18.4 0-4.96 3.84-8.8 8.8-8.8 2.72 0 5.44 1.28 7.2 3.36 1.76-2.080 4.48-3.36 7.2-3.36 4.96 0 8.8 3.84 8.8 8.8 0 6.080-5.44 11.040-13.76 18.4l-2.24 2.24z"></path>
</symbol>
<symbol id="icon-arrow_forward" viewBox="0 0 24 24">
<path d="M5.859 4.125l2.156-2.109 9.984 9.984-9.984 9.984-2.156-2.109 7.922-7.875z"></path>
</symbol>
<symbol id="icon-arrow_back" viewBox="0 0 24 24">
<path d="M11.672 3.891l-8.109 8.109 8.109 8.109-1.781 1.781-9.891-9.891 9.891-9.891z"></path>
</symbol>
<symbol id="icon-find" viewBox="0 0 32 32">
<path fill="#a6a6a6" style="fill: var(--color1, #a6a6a6)" d="M31.609 29.724l-9.1-9.1c1.763-2.177 2.824-4.944 2.824-7.957 0-6.984-5.683-12.667-12.667-12.667s-12.666 5.683-12.666 12.666c0 6.984 5.683 12.667 12.667 12.667 3.013 0 5.78-1.061 7.957-2.824l9.1 9.1c0.26 0.26 0.601 0.391 0.943 0.391s0.683-0.131 0.943-0.391c0.521-0.521 0.521-1.364-0-1.885zM12.667 22.667c-5.515 0-10-4.485-10-10s4.485-10 10-10c5.515 0 10 4.485 10 10s-4.485 10-10 10z"></path>
</symbol>
<symbol id="icon-polygonDown" viewBox="0 0 48 32">
<path d="M24 32l-20.785-30h41.569l-20.785 30z"></path>
</symbol>
<symbol id="icon-polygon" viewBox="0 0 48 32">
<path d="M24 0l20.785 30h-41.569l20.785-30z"></path>
</symbol>
<symbol id="github" viewBox="0 0 32 32">
<path d="M16 0.395c-8.836 0-16 7.163-16 16 0 7.069 4.585 13.067 10.942 15.182 0.8 0.148 1.094-0.347 1.094-0.77 0-0.381-0.015-1.642-0.022-2.979-4.452 0.968-5.391-1.888-5.391-1.888-0.728-1.849-1.776-2.341-1.776-2.341-1.452-0.993 0.11-0.973 0.11-0.973 1.606 0.113 2.452 1.649 2.452 1.649 1.427 2.446 3.743 1.739 4.656 1.33 0.143-1.034 0.558-1.74 1.016-2.14-3.554-0.404-7.29-1.777-7.29-7.907 0-1.747 0.625-3.174 1.649-4.295-0.166-0.403-0.714-2.030 0.155-4.234 0 0 1.344-0.43 4.401 1.64 1.276-0.355 2.645-0.532 4.005-0.539 1.359 0.006 2.729 0.184 4.008 0.539 3.054-2.070 4.395-1.64 4.395-1.64 0.871 2.204 0.323 3.831 0.157 4.234 1.026 1.12 1.647 2.548 1.647 4.295 0 6.145-3.743 7.498-7.306 7.895 0.574 0.497 1.085 1.47 1.085 2.963 0 2.141-0.019 3.864-0.019 4.391 0 0.426 0.288 0.925 1.099 0.768 6.354-2.118 10.933-8.113 10.933-15.18 0-8.837-7.164-16-16-16z"></path>
</symbol>
<symbol id="linkedin" viewBox="0 0 32 32">
<path d="M29 0h-26c-1.65 0-3 1.35-3 3v26c0 1.65 1.35 3 3 3h26c1.65 0 3-1.35 3-3v-26c0-1.65-1.35-3-3-3zM12 26h-4v-14h4v14zM10 10c-1.106 0-2-0.894-2-2s0.894-2 2-2c1.106 0 2 0.894 2 2s-0.894 2-2 2zM26 26h-4v-8c0-1.106-0.894-2-2-2s-2 0.894-2 2v8h-4v-14h4v2.481c0.825-1.131 2.087-2.481 3.5-2.481 2.488 0 4.5 2.238 4.5 5v9z"></path>
</symbol>
<symbol id="icon-menu" viewBox="0 0 32 32">
<path d="M2 6h28v6h-28zM2 14h28v6h-28zM2 22h28v6h-28z"></path>
</symbol>
<symbol id="icon-cross" viewBox="0 0 32 32">
<path d="M32 3.223l-3.223-3.223-12.777 12.777-12.777-12.777-3.223 3.223 12.777 12.777-12.777 12.777 3.223 3.223 12.777-12.777 12.777 12.777 3.223-3.223-12.777-12.777 12.777-12.777z"></path>
</symbol>
</defs>
</svg>
