<svg aria-hidden="true" style="position: absolute; width: 0; height: 0; overflow: hidden;" version="1.1" xmlns="http://www.w3.org/2000/svg" xmlns:xlink="http://www.w3.org/1999/xlink">
<defs>
<symbol id="icon-edit" viewBox="0 0 32 32">
<path fill="#a6a6a6" style="fill: var(--color1, #a6a6a6)" d="M15.999 0c-8.836 0-15.999 7.164-15.999 16s7.163 16 15.999 16c8.836 0 16-7.164 16-16s-7.164-16-16-16zM23.605 11.514l-1.52 1.52-3.093-3.093-1.174 1.174 3.093 3.093-7.587 7.587-3.093-3.093-1.174 1.174 3.093 3.093-0.756 0.756-0.014-0.014c-0.084 0.138-0.22 0.239-0.382 0.275l-2.885 0.643c-0.043 0.010-0.087 0.014-0.131 0.014-0.157 0-0.31-0.062-0.424-0.176-0.146-0.145-0.206-0.354-0.161-0.555l0.643-2.884c0.036-0.162 0.137-0.298 0.275-0.382l-0.015-0.015 12.21-12.211c0.179-0.179 0.47-0.179 0.649 0.001l2.445 2.444c0.179 0.179 0.179 0.47-0 0.649z"></path>
</symbol>

<symbol id="icon-find" viewBox="0 0 32 32">
<path fill="#a6a6a6" style="fill: var(--color1, #a6a6a6)" d="M31.609 29.724l-9.1-9.1c1.763-2.177 2.824-4.944 2.824-7.957 0-6.984-5.683-12.667-12.667-12.667s-12.666 5.683-12.666 12.666c0 6.984 5.683 12.667 12.667 12.667 3.013 0 5.78-1.061 7.957-2.824l9.1 9.1c0.26 0.26 0.601 0.391 0.943 0.391s0.683-0.131 0.943-0.391c0.521-0.521 0.521-1.364-0-1.885zM12.667 22.667c-5.515 0-10-4.485-10-10s4.485-10 10-10c5.515 0 10 4.485 10 10s-4.485 10-10 10z"></path>
</symbol>

<symbol id="icon-delete" viewBox="0 0 30 32">
<path fill="#a6a6a6" style="fill: var(--color1, #a6a6a6)" d="M15.238 0.762c-8.416 0-15.238 6.822-15.238 15.238s6.822 15.238 15.238 15.238c8.416 0 15.238-6.822 15.238-15.238s-6.822-15.238-15.238-15.238zM16.772 7.961h-3.056v0.514h-1.104v-0.586c0-0.569 0.463-1.032 1.031-1.032h3.201c0.569 0 1.031 0.463 1.031 1.032v0.586h-1.104v-0.514zM20.424 12.848c0.284 0 0.507 0.242 0.484 0.525l-0.866 10.711c-0.048 0.598-0.547 1.059-1.146 1.059h-7.305c-0.599 0-1.098-0.46-1.146-1.058l-0.866-10.711c-0.023-0.283 0.201-0.525 0.485-0.525h10.361zM12.572 24c0.304-0.019 0.536-0.281 0.517-0.585l-0.543-8.793c-0.019-0.304-0.282-0.535-0.585-0.517s-0.536 0.281-0.517 0.585l0.543 8.793c0.018 0.293 0.261 0.518 0.55 0.518 0.011 0 0.023-0 0.035-0.001zM15.802 23.45v-8.793c0-0.305-0.247-0.552-0.552-0.552s-0.552 0.247-0.552 0.552v8.793c0 0.305 0.247 0.552 0.552 0.552s0.552-0.247 0.552-0.552zM19.043 14.689c0.018-0.304-0.214-0.566-0.519-0.583s-0.566 0.214-0.583 0.518l-0.518 8.793c-0.018 0.304 0.214 0.566 0.518 0.583l0.010 0 0.023 0c0.29 0 0.533-0.226 0.55-0.519l0.518-8.793zM21.97 10.059l0.363 1.087c0.070 0.209-0.021 0.423-0.191 0.53-0.069 0.044-0.151 0.070-0.241 0.070h-13.314c-0.090 0-0.172-0.026-0.241-0.069-0.17-0.107-0.261-0.32-0.191-0.53l0.362-1.086c0.095-0.286 0.364-0.48 0.666-0.48h12.122c0.302 0 0.57 0.193 0.666 0.48z"></path>
</symbol>

</defs>
</svg>
